<svg xmlns="http://www.w3.org/2000/svg" width="900" height="520" viewBox="0 0 900 520" role="img" aria-label="EV charging station">
  <defs>
    <linearGradient id="sky" x1="0" x2="1" y1="0" y2="1">
      <stop offset="0" stop-color="#dff6ea"/>
      <stop offset="1" stop-color="#f8fff9"/>
    </linearGradient>
    <linearGradient id="panel" x1="0" x2="1">
      <stop offset="0" stop-color="#0f2c22"/>
      <stop offset="1" stop-color="#1cff69"/>
    </linearGradient>
  </defs>
  <rect width="900" height="520" fill="url(#sky)"/>
  <path d="M0 390h900v130H0z" fill="#d7e6dc"/>
  <path d="M70 356h760" stroke="#bfd3c7" stroke-width="18" stroke-linecap="round"/>
  <path d="M155 170h520l95 96H70z" fill="#12231d"/>
  <path d="M185 190h450l55 54H128z" fill="url(#panel)"/>
  <path d="M190 266v105M650 266v105" stroke="#12231d" stroke-width="18" stroke-linecap="round"/>
  <rect x="606" y="270" width="82" height="132" rx="24" fill="#17221d"/>
  <rect x="630" y="294" width="34" height="26" rx="9" fill="#1cff69"/>
  <path d="M650 334c35 18 43 41 30 70" fill="none" stroke="#17221d" stroke-width="10" stroke-linecap="round"/>
  <path d="M221 329c18-39 56-64 101-64h149c50 0 91 32 105 78l15 51H190z" fill="#fff"/>
  <path d="M300 285h171c26 0 50 15 61 38H255c10-22 25-38 45-38z" fill="#9ed9bc"/>
  <circle cx="290" cy="398" r="44" fill="#111"/>
  <circle cx="290" cy="398" r="20" fill="#dbe6df"/>
  <circle cx="508" cy="398" r="44" fill="#111"/>
  <circle cx="508" cy="398" r="20" fill="#dbe6df"/>
  <rect x="215" y="346" width="338" height="42" rx="18" fill="#f5faf7"/>
  <path d="M394 314l-24 44h35l-18 48 58-68h-39l24-24z" fill="#1cff69"/>
</svg>
